<svg width="612" height="984" viewBox="0 0 612 984" fill="none" xmlns="http://www.w3.org/2000/svg">
<g clip-path="url(#clip0_4_2)">
<path d="M306 0C306 0 576 300.893 576 450C576 599.107 455.13 720 306 720C156.893 720 36 599.107 36 450L306 0Z" fill="#4294A5"/>
<path d="M418.365 360C393.435 360 373.23 380.205 373.23 405.157C373.23 430.065 393.412 450.27 418.365 450.27C443.272 450.27 463.5 430.088 463.5 405.157C463.5 380.205 443.295 360 418.365 360Z" fill="#ABDCE1"/>
<path d="M328.5 697.5C179.393 697.5 58.5 576.607 58.5 427.5C58.5 303.817 244.125 75.8925 307.485 1.665L306 0C306 0 36 300.893 36 450C36 599.107 156.893 720 306 720C386.28 720 458.19 684.765 507.623 629.123C459.945 671.535 397.35 697.5 328.5 697.5Z" fill="#369DC0"/>
</g>
<path d="M36.608 937.424C49.3227 937.424 55.68 932.261 55.68 921.936C55.68 916.901 52.5653 912.635 46.336 909.136C43.52 907.515 40.4053 905.979 36.992 904.528C33.664 903.077 30.2933 901.499 26.88 899.792C23.4667 898.085 20.352 896.251 17.536 894.288C14.8053 892.325 12.544 889.851 10.752 886.864C9.04533 883.877 8.192 880.507 8.192 876.752C8.192 870.608 10.6667 865.403 15.616 861.136C20.6507 856.784 27.52 854.608 36.224 854.608C44.928 854.608 54.1013 857.253 63.744 862.544C63.744 867.408 63.1467 873.509 61.952 880.848C60.0747 881.104 57.6 881.232 54.528 881.232L50.688 866.384C49.664 865.872 47.616 865.36 44.544 864.848C41.5573 864.336 38.912 864.08 36.608 864.08C31.6587 864.08 27.8187 865.147 25.088 867.28C22.3573 869.328 20.992 872.229 20.992 875.984C20.992 879.653 22.5707 882.981 25.728 885.968C28.9707 888.869 32.8533 891.387 37.376 893.52C41.984 895.568 46.5493 897.701 51.072 899.92C55.68 902.139 59.5627 905.04 62.72 908.624C65.9627 912.123 67.584 916.219 67.584 920.912C67.584 929.445 64.7253 936.059 59.008 940.752C53.2907 945.36 45.824 947.664 36.608 947.664C31.5733 947.664 26.112 946.896 20.224 945.36C14.4213 943.739 9.6 941.691 5.76 939.216C5.93067 933.499 6.57067 926.885 7.68 919.376C9.55733 919.12 12.032 918.992 15.104 918.992L17.792 934.352C19.6693 935.12 22.4853 935.845 26.24 936.528C30.08 937.125 33.536 937.424 36.608 937.424ZM110.495 938.832C114.25 938.832 120.138 937.04 128.159 933.456C129.78 935.675 130.634 937.637 130.719 939.344C126.367 941.904 122.1 943.909 117.919 945.36C113.738 946.811 110.751 947.536 108.959 947.536C99.0603 947.536 91.5083 944.592 86.303 938.704C81.0977 932.731 78.495 924.411 78.495 913.744C78.495 903.077 81.0123 894.715 86.047 888.656C91.167 882.512 98.8043 879.44 108.959 879.44C116.81 879.44 122.783 882.256 126.879 887.888C131.06 893.52 133.151 901.072 133.151 910.544C132.468 911.739 131.914 912.549 131.487 912.976L90.271 912.336C90.3563 920.955 91.8497 927.525 94.751 932.048C97.7377 936.571 102.986 938.832 110.495 938.832ZM121.503 905.04C121.503 899.408 120.479 895.056 118.431 891.984C116.383 888.827 112.97 887.248 108.191 887.248C103.412 887.248 99.1457 888.144 95.391 889.936C92.831 895.056 91.2097 900.304 90.527 905.68C97.2683 905.595 107.594 905.381 121.503 905.04ZM163.579 939.472L162.939 966.864L174.075 967.76C174.075 970.149 173.35 972.709 171.899 975.44H142.203L141.819 970.96C145.744 969.68 149.584 968.699 153.339 968.016C152.827 933.2 152.4 907.301 152.059 890.32C148.219 890.235 144.464 889.723 140.795 888.784L141.307 882.128C146.256 880.848 153.168 880.208 162.043 880.208C162.811 881.573 163.536 884.091 164.219 887.76C175.142 882.213 182.054 879.44 184.955 879.44C192.891 879.44 198.779 882.555 202.619 888.784C206.459 894.928 208.379 902.949 208.379 912.848C208.379 922.661 206.203 930.896 201.851 937.552C197.584 944.208 191.355 947.536 183.163 947.536C180.091 947.536 176.72 946.768 173.051 945.232C169.467 943.696 166.31 941.776 163.579 939.472ZM182.651 889.04C177.36 889.04 171.216 890.917 164.219 894.672C164.048 910.544 163.878 922.448 163.707 930.384C165.84 932.517 168.656 934.48 172.155 936.272C175.739 937.979 178.854 938.832 181.499 938.832C191.568 938.832 196.603 930.555 196.603 914C196.603 907.685 195.878 902.736 194.427 899.152C192.976 895.483 191.312 892.88 189.435 891.344C187.558 889.808 185.296 889.04 182.651 889.04ZM227.08 938.064L226.056 889.808H216.2L215.816 885.328C216.669 884.731 219.144 883.621 223.24 882L233.736 865.616C235.443 865.787 236.765 866.213 237.704 866.896L237.576 880.976C243.976 880.976 249.224 881.403 253.32 882.256C253.32 884.56 252.595 887.077 251.144 889.808H237.32C237.149 900.048 236.979 915.579 236.808 936.4C241.587 936.656 246.365 937.509 251.144 938.96L251.016 943.44C249.821 944.208 246.749 945.104 241.8 946.128C236.936 947.152 232.925 947.664 229.768 947.664C229.341 946.981 228.787 945.531 228.104 943.312C227.421 941.008 227.08 939.259 227.08 938.064ZM285.148 868.816C282.929 869.328 280.753 869.584 278.62 869.584C276.572 869.584 274.524 869.456 272.476 869.2C271.964 866.811 271.708 864.421 271.708 862.032C271.708 859.557 271.793 857.723 271.964 856.528C273.841 856.101 275.804 855.888 277.852 855.888C279.985 855.888 282.247 855.973 284.636 856.144C285.148 858.363 285.404 860.539 285.404 862.672C285.404 864.72 285.319 866.768 285.148 868.816ZM261.852 882.256C269.105 880.976 274.737 880.336 278.748 880.336C282.759 880.336 285.319 880.421 286.428 880.592C286.428 882.64 286.172 884.901 285.66 887.376C285.148 889.851 284.849 891.045 284.764 890.96L283.612 937.296L294.364 938.32C294.364 940.709 293.639 943.269 292.188 946H262.748L262.364 941.52C266.289 940.155 270.129 939.131 273.884 938.448C273.372 917.115 272.945 901.115 272.604 890.448C267.655 890.448 263.9 889.936 261.34 888.912L261.852 882.256ZM318.763 850.128C321.408 850.128 323.286 850.213 324.395 850.384C324.395 853.029 323.84 856.443 322.731 860.624C322.219 883.152 321.963 900.176 321.963 911.696L342.571 889.68L332.331 888.656C332.331 886.267 333.056 883.707 334.507 880.976H367.019L367.403 886.608C365.44 887.376 361.856 888.357 356.651 889.552L339.115 905.424L360.747 937.296L371.499 938.32C371.499 940.709 370.774 943.269 369.323 946H351.787L331.819 911.952L321.835 921.04C321.664 928.208 321.579 933.627 321.579 937.296L332.331 938.32C332.331 940.709 331.606 943.269 330.155 946H300.715L300.331 941.52C304.256 940.155 308.096 939.131 311.851 938.448C311.339 903.973 310.912 877.904 310.571 860.24C305.878 859.984 302.123 859.472 299.307 858.704L299.819 852.048C304.171 850.768 310.486 850.128 318.763 850.128ZM400.148 868.816C397.929 869.328 395.753 869.584 393.62 869.584C391.572 869.584 389.524 869.456 387.476 869.2C386.964 866.811 386.708 864.421 386.708 862.032C386.708 859.557 386.793 857.723 386.964 856.528C388.841 856.101 390.804 855.888 392.852 855.888C394.985 855.888 397.247 855.973 399.636 856.144C400.148 858.363 400.404 860.539 400.404 862.672C400.404 864.72 400.319 866.768 400.148 868.816ZM376.852 882.256C384.105 880.976 389.737 880.336 393.748 880.336C397.759 880.336 400.319 880.421 401.428 880.592C401.428 882.64 401.172 884.901 400.66 887.376C400.148 889.851 399.849 891.045 399.764 890.96L398.612 937.296L409.364 938.32C409.364 940.709 408.639 943.269 407.188 946H377.748L377.364 941.52C381.289 940.155 385.129 939.131 388.884 938.448C388.372 917.115 387.945 901.115 387.604 890.448C382.655 890.448 378.9 889.936 376.34 888.912L376.852 882.256ZM425.955 938.064L424.931 889.808H415.075L414.691 885.328C415.544 884.731 418.019 883.621 422.115 882L432.611 865.616C434.318 865.787 435.64 866.213 436.579 866.896L436.451 880.976C442.851 880.976 448.099 881.403 452.195 882.256C452.195 884.56 451.47 887.077 450.019 889.808H436.195C436.024 900.048 435.854 915.579 435.683 936.4C440.462 936.656 445.24 937.509 450.019 938.96L449.891 943.44C448.696 944.208 445.624 945.104 440.675 946.128C435.811 947.152 431.8 947.664 428.643 947.664C428.216 946.981 427.662 945.531 426.979 943.312C426.296 941.008 425.955 939.259 425.955 938.064ZM494.007 937.552C496.482 937.552 499.255 937.04 502.327 936.016C505.399 934.907 507.916 933.584 509.879 932.048C509.538 913.872 509.239 900.091 508.983 890.704C503.692 890.704 499.767 890.192 497.207 889.168L497.719 882.512C504.972 881.232 510.647 880.592 514.743 880.592C518.924 880.592 521.57 880.677 522.679 880.848C522.679 882.384 522.423 884.432 521.911 886.992C521.484 889.552 521.186 890.96 521.015 891.216L519.479 936.912C524.002 937.168 527.671 937.68 530.487 938.448L530.231 944.976C526.476 946.171 522.85 946.768 519.351 946.768C515.852 946.768 513.719 946.725 512.951 946.64C511.33 943.397 510.391 940.411 510.135 937.68C505.954 940.837 502.071 943.269 498.487 944.976C494.988 946.683 492.684 947.536 491.575 947.536C484.066 947.536 478.604 945.531 475.191 941.52C471.863 937.424 470.199 931.451 470.199 923.6C470.199 923.515 470.583 912.592 471.351 890.832C466.402 890.832 461.836 890.277 457.655 889.168L458.167 882.512C465.42 881.232 471.052 880.592 475.063 880.592C479.074 880.592 481.634 880.677 482.743 880.848C482.743 882.896 482.487 885.157 481.975 887.632C481.463 890.107 481.164 891.301 481.079 891.216L481.207 918.864C481.207 925.349 482.018 930.085 483.639 933.072C485.26 936.059 488.716 937.552 494.007 937.552ZM579.092 864.336C578.665 878.672 578.196 902.992 577.684 937.296L588.436 938.32C588.436 940.709 587.711 943.269 586.26 946H556.82L556.436 941.52C561.385 939.728 565.311 938.704 568.212 938.448C567.359 905.509 566.676 880.805 566.164 864.336H547.476L544.404 877.392L536.98 876.88C535.7 871.675 535.06 866.384 535.06 861.008C535.06 859.984 535.145 858.448 535.316 856.4H609.044C609.215 857.509 609.3 859.216 609.3 861.52C609.3 866.128 608.703 871.163 607.508 876.624C605.631 877.136 603.156 877.392 600.084 877.392L596.884 864.336H579.092Z" fill="#369DC0"/>
<defs>
<clipPath id="clip0_4_2">
<rect width="540" height="720" fill="white" transform="translate(36)"/>
</clipPath>
</defs>
</svg>
